<?xml version="1.0" encoding="utf-8"?>
<!-- Generator: Adobe Illustrator 24.0.3, SVG Export Plug-In . SVG Version: 6.00 Build 0)  -->
<svg version="1.1" id="Layer_1" xmlns="http://www.w3.org/2000/svg" xmlns:xlink="http://www.w3.org/1999/xlink" x="0px" y="0px"
	 viewBox="0 0 346.7 48.4" style="enable-background:new 0 0 346.7 48.4;" xml:space="preserve">
<style type="text/css">
	.st0{fill:#002067;}
	.st1{fill:#019FE7;}
	.st2{fill:#FFFFFF;}
</style>
<path class="st0" d="M25.7,13.6c0,6.6-5.2,11.8-12,11.8H7.6v11.5H0.7v-35h13.1C20.5,1.8,25.7,7,25.7,13.6z M18.9,13.6
	c0-3.1-2.2-5.3-5.1-5.3H7.6v10.6h6.2C16.7,18.9,18.9,16.6,18.9,13.6z"/>
<path class="st0" d="M43.4,11.3v7.2c-3.4-0.4-7.6,1.1-7.6,6.4v12h-6.5v-25h6.5v4.3C37.1,12.7,40.3,11.3,43.4,11.3z"/>
<path class="st0" d="M44.9,24.3c0-7.5,5.9-13.2,13.2-13.2c7.4,0,13.3,5.8,13.3,13.2c0,7.5-5.9,13.2-13.3,13.2
	C50.8,37.5,44.9,31.8,44.9,24.3z M64.9,24.3c0-4-3-6.9-6.8-6.9c-3.8,0-6.8,2.9-6.8,6.9c0,4.1,3,6.9,6.8,6.9
	C62,31.2,64.9,28.4,64.9,24.3z"/>
<path class="st0" d="M113,21.4v15.4h-6.5v-15c0-3-1.5-4.8-4.2-4.8c-2.9,0-4.7,1.9-4.7,5.7v14.1h-6.5v-15c0-3-1.5-4.8-4.2-4.8
	c-2.8,0-4.7,1.9-4.7,5.7v14.1h-6.5v-25h6.5v2.6c1.4-2.1,3.8-3.4,7-3.4c3.1,0,5.4,1.3,6.8,3.6c1.6-2.2,4.1-3.6,7.5-3.6
	C109.3,11.1,113,15.2,113,21.4z"/>
<path class="st0" d="M117.2,24.3c0-7.5,5.9-13.2,13.2-13.2c7.4,0,13.3,5.8,13.3,13.2c0,7.5-5.9,13.2-13.3,13.2
	C123.1,37.5,117.2,31.8,117.2,24.3z M137.2,24.3c0-4-3-6.9-6.8-6.9c-3.8,0-6.8,2.9-6.8,6.9c0,4.1,3,6.9,6.8,6.9
	C134.3,31.2,137.2,28.4,137.2,24.3z"/>
<path class="st1" d="M173.5,13.6c0,6.6-5.2,11.8-12,11.8h-6.2v11.5h-6.9v-35h13.1C168.3,1.8,173.5,7,173.5,13.6z M166.7,13.6
	c0-3.1-2.2-5.3-5.1-5.3h-6.2v10.6h6.2C164.5,18.9,166.7,16.6,166.7,13.6z"/>
<path class="st1" d="M177.7,0.3h6.5v36.5h-6.5V0.3z"/>
<path class="st1" d="M215.5,11.8v25h-6.5v-3c-1.8,2.2-4.5,3.7-8.2,3.7c-6.7,0-12.2-5.8-12.2-13.2c0-7.5,5.5-13.2,12.2-13.2
	c3.7,0,6.4,1.4,8.2,3.7v-3H215.5z M209.1,24.3c0-4.2-3-7.1-7-7.1c-4,0-6.9,2.9-6.9,7.1c0,4.2,3,7.1,6.9,7.1
	C206.1,31.4,209.1,28.5,209.1,24.3z"/>
<path class="st1" d="M244.7,21.5v15.4h-6.5V22.3c0-3.4-2-5.2-5-5.2c-3.2,0-5.5,1.9-5.5,6.2v13.5h-6.5v-25h6.5v2.8
	c1.5-2.3,4.1-3.5,7.5-3.5C240.6,11.1,244.7,14.8,244.7,21.5z"/>
<path class="st1" d="M273.6,21.5v15.4h-6.5V22.3c0-3.4-2-5.2-5-5.2c-3.2,0-5.5,1.9-5.5,6.2v13.5h-6.5v-25h6.5v2.8
	c1.5-2.3,4.1-3.5,7.5-3.5C269.4,11.1,273.6,14.8,273.6,21.5z"/>
<path class="st1" d="M278.3,4.9c0-2.1,1.8-4,4-4c2.2,0,4,1.9,4,4c0,2.2-1.8,4-4,4C280.1,8.8,278.3,7,278.3,4.9z M279.1,11.8h6.5v25
	h-6.5V11.8z"/>
<path class="st1" d="M314.8,21.5v15.4h-6.5V22.3c0-3.4-2-5.2-5-5.2c-3.2,0-5.5,1.9-5.5,6.2v13.5h-6.5v-25h6.5v2.8
	c1.5-2.3,4.1-3.5,7.5-3.5C310.6,11.1,314.8,14.8,314.8,21.5z"/>
<path class="st1" d="M345.7,11.8v23.8c0,8.2-6.5,11.9-13.1,11.9c-5.4,0-9.7-2.1-11.9-6.1l5.5-3.1c1.1,2,2.7,3.5,6.6,3.5
	c4.1,0,6.6-2.2,6.6-6.2v-2.7c-1.8,2.4-4.5,3.8-8,3.8c-7.1,0-12.5-5.8-12.5-12.8c0-7,5.4-12.8,12.5-12.8c3.5,0,6.2,1.5,8,3.8v-3.1
	H345.7z M339.4,23.9c0-4-2.9-6.8-7-6.8s-7,2.9-7,6.8c0,4,3,6.9,7,6.9S339.4,27.9,339.4,23.9z"/>
</svg>
