<svg width="196" height="32" viewBox="0 0 auto auto" fill="none" xmlns="http://www.w3.org/2000/svg">
<g clip-path="url(#clip0_2121_82414)">
<path fill-rule="evenodd" clip-rule="evenodd" d="M72.9703 22.5811C74.6454 24.2083 76.7124 25.0032 79.1383 24.9988C81.5635 24.9938 83.6275 24.1905 85.296 22.5562C86.9646 20.9225 87.8126 18.9067 87.8073 16.5406C87.8035 14.1746 86.9463 12.1938 85.2716 10.5667C83.597 8.93901 81.5292 8.11189 79.104 8.11684C76.6781 8.12187 74.6151 8.9573 72.9462 10.5911C71.278 12.2248 70.4628 14.209 70.4673 16.5751C70.4718 18.9411 71.2953 20.9535 72.9703 22.5811ZM82.3063 19.7165C81.4553 20.5498 80.4076 20.9677 79.1292 20.9699C77.8507 20.9728 76.8008 20.5592 75.9468 19.7293C75.1255 18.8994 74.697 17.8449 74.6942 16.5665C74.6914 15.2876 75.116 14.2315 75.9334 13.3988C76.784 12.5656 77.8324 12.1475 79.1109 12.1453C80.3901 12.1426 81.4393 12.5562 82.2934 13.386C83.1475 14.2154 83.5756 15.2698 83.5779 16.5488C83.5802 17.8278 83.1566 18.8839 82.3063 19.7165Z" fill="#002067"/>
<path fill-rule="evenodd" clip-rule="evenodd" d="M53.8683 22.6189C55.5427 24.2459 57.6099 25.0409 60.0357 25.0365C62.4621 25.0315 64.5248 24.2282 66.1931 22.5939C67.8619 20.9602 68.7101 18.9445 68.7056 16.5784C68.7006 14.2123 67.8446 12.2315 66.1696 10.6043C64.494 8.97669 62.4274 8.14957 60.0016 8.15459C57.5758 8.15955 55.5125 8.99498 53.8437 10.6287C52.1754 12.2625 51.3602 14.2466 51.3653 16.6127C51.3692 18.9788 52.1933 20.9912 53.8683 22.6189ZM63.2063 19.754C62.3565 20.5872 61.3075 21.0053 60.0291 21.0075C58.7508 21.0102 57.7013 20.5967 56.8475 19.7668C56.0262 18.9368 55.5977 17.8824 55.5954 16.604C55.5927 15.3251 56.0167 14.269 56.8347 13.4363C57.6856 12.6031 58.7334 12.1851 60.0118 12.1829C61.2901 12.18 62.3403 12.5937 63.1934 13.4235C64.0477 14.2529 64.4757 15.3074 64.4785 16.5863C64.4808 17.8652 64.0567 18.9213 63.2063 19.754Z" fill="#002067"/>
<path d="M49.6958 12.5872L46.3917 12.5939L46.4051 19.2442C46.4084 20.868 47.5391 20.9911 49.6902 20.8896C49.9184 20.8786 50.112 21.057 50.1126 21.2837L50.1188 24.2492C50.1193 24.4532 49.9588 24.6267 49.754 24.6472C44.2294 25.1888 42.1846 23.5401 42.1762 19.2525L42.1465 4.55706C42.146 4.33863 42.3244 4.16067 42.5454 4.16067L45.9749 4.15402C46.1953 4.15347 46.3743 4.33031 46.3749 4.54874L46.3833 8.62896L49.6874 8.62234C49.9084 8.62234 50.0874 8.79917 50.088 9.01761L50.0947 12.1903C50.0947 12.4093 49.9168 12.5867 49.6958 12.5872Z" fill="#002067"/>
<path d="M89.9474 24.248L89.9009 1.58496C89.9009 1.36653 90.0792 1.18857 90.3001 1.18802L93.7302 1.18137C93.9504 1.18082 94.1302 1.35766 94.1302 1.57664L94.1759 24.2396C94.1767 24.4581 93.9976 24.636 93.7767 24.6366L90.3474 24.6433C90.1264 24.6433 89.9474 24.467 89.9474 24.248Z" fill="#002067"/>
<path d="M103.871 14.8149C106.265 15.2895 109.381 16.4027 109.356 19.8237C109.359 21.4547 108.738 22.7348 107.462 23.6328C106.218 24.4983 104.645 24.949 102.777 24.9528C99.5595 24.9589 97.3211 23.8014 96.0639 21.5085C95.9603 21.3189 96.0373 21.0777 96.227 20.973L99.1786 19.3464C99.3782 19.2366 99.6182 19.3282 99.718 19.5321C100.264 20.647 101.265 21.2146 102.769 21.2119C104.278 21.2085 105.03 20.7601 105.028 19.8321C105.027 18.9694 103.715 18.4921 102.042 18.0796C99.6152 17.477 96.5637 16.4919 96.5576 13.1668C96.5546 11.6001 97.1428 10.3522 98.3199 9.45463C99.5313 8.52434 101.006 8.07421 102.775 8.07033C105.279 8.06591 107.465 9.14194 108.782 11.0856C108.911 11.2769 108.836 11.5402 108.632 11.65L105.755 13.1878C105.563 13.2904 105.335 13.2144 105.22 13.0309C104.68 12.1733 103.861 11.7453 102.783 11.7475C101.701 11.7497 100.882 12.2631 100.884 13.0626C100.887 13.9257 102.199 14.4024 103.871 14.8149Z" fill="#002067"/>
<path fill-rule="evenodd" clip-rule="evenodd" d="M135.514 11.3171C136.247 9.39788 138.019 8.37502 140.073 8.2509C140.3 8.23704 140.49 8.42492 140.491 8.64946L140.498 12.4132C140.498 12.6444 140.299 12.8162 140.066 12.8046C138.954 12.7491 137.925 13.0191 137.026 13.6162C136.011 14.2898 135.522 15.378 135.525 16.9125L135.54 24.1583C135.54 24.3772 135.362 24.5546 135.141 24.5546L131.711 24.5618C131.491 24.5624 131.311 24.3855 131.311 24.1666L131.28 8.97159C131.28 8.75315 131.458 8.57517 131.679 8.57517L135.108 8.56801C135.329 8.56801 135.508 8.74424 135.509 8.96329L135.514 11.3171Z" fill="#002067"/>
<path fill-rule="evenodd" clip-rule="evenodd" d="M150.501 20.9431C151.78 20.9409 152.828 20.5229 153.679 19.6897C154.529 18.857 154.953 17.8009 154.951 16.522C154.948 15.2429 154.52 14.1885 153.665 13.3592C152.811 12.5293 151.761 12.1157 150.483 12.1185C149.205 12.1207 148.157 12.5387 147.306 13.3719C146.488 14.2046 146.064 15.2607 146.067 16.5396C146.07 17.818 146.498 18.8725 147.319 19.7024C148.173 20.5323 149.224 20.9459 150.501 20.9431ZM150.508 24.9723C148.083 24.9767 146.016 24.1818 144.341 22.5547C142.666 20.9271 141.842 18.9146 141.838 16.5485C141.832 14.1825 142.648 12.1983 144.316 10.5645C145.985 8.9308 148.049 8.09537 150.474 8.09042C152.9 8.08539 154.966 8.91251 156.642 10.5402C158.317 12.1673 159.173 14.1481 159.178 16.5142C159.182 18.8803 158.334 20.896 156.665 22.5297C154.997 24.164 152.934 24.9674 150.508 24.9723Z" fill="#002067"/>
<path fill-rule="evenodd" clip-rule="evenodd" d="M186.686 20.9666C187.996 20.9638 189.076 20.5464 189.928 19.7131C190.811 18.8483 191.235 17.76 191.232 16.4495C191.23 15.1384 190.801 14.0518 189.914 13.2224C189.06 12.361 187.978 11.9474 186.667 11.9501C185.356 11.9523 184.275 12.3704 183.425 13.2358C182.574 14.0685 182.15 15.1562 182.152 16.4672C182.155 17.7783 182.584 18.8643 183.438 19.7259C184.292 20.5558 185.374 20.9688 186.686 20.9666ZM193.087 10.4671C194.664 12.0947 195.455 14.0755 195.46 16.4411C195.464 18.8072 194.682 20.8235 193.112 22.4573C191.575 24.0904 189.675 24.8938 187.479 24.8982C185.183 24.9026 183.412 24.1392 182.164 22.5747L182.179 30.4597C182.18 30.6787 182.001 30.856 181.78 30.8566L178.35 30.8633C178.13 30.8638 177.951 30.687 177.95 30.468L177.908 8.87829C177.907 8.65985 178.085 8.48187 178.305 8.48187L181.736 8.47524C181.956 8.47471 182.136 8.65154 182.136 8.87052L182.139 10.3613C183.381 8.79181 185.15 8.02061 187.444 8.01619C189.64 8.01177 191.544 8.83943 193.087 10.4671Z" fill="#002067"/>
<path fill-rule="evenodd" clip-rule="evenodd" d="M119.815 20.2241C120.946 20.2219 121.871 19.8527 122.591 19.1154C123.31 18.3786 123.669 17.3935 123.666 16.1599C123.663 14.927 123.284 13.9491 122.529 13.2256C121.774 12.5027 120.863 12.1418 119.8 12.144C119.243 12.1452 118.729 12.2383 118.252 12.4229C117.775 12.6081 117.36 12.8786 117.006 13.2367C116.652 13.5943 116.376 14.0223 116.177 14.5201C115.979 15.0185 115.88 15.5701 115.881 16.1755C115.884 17.4306 116.251 18.4196 116.985 19.1425C117.719 19.866 118.661 20.2263 119.815 20.2241ZM115.033 24.5877C115.251 24.5305 115.463 24.6675 115.523 24.8826C115.723 25.5894 116.104 26.1804 116.668 26.655C117.333 27.2159 118.2 27.4954 119.264 27.4932C120.662 27.4904 121.736 27.1367 122.489 26.4326C123.241 25.7275 123.616 24.5965 123.614 23.0393L123.611 21.8712C123.279 22.3907 122.737 22.8624 121.984 23.2854C121.23 23.709 120.255 23.9219 119.057 23.9241C117.97 23.9263 116.961 23.7339 116.028 23.3464C115.096 22.9589 114.291 22.4195 113.614 21.7282C112.935 21.038 112.401 20.222 112.012 19.2817C111.621 18.3415 111.425 17.3092 111.423 16.1839C111.421 15.1244 111.607 14.1232 111.983 13.1814C112.358 12.2394 112.878 11.4112 113.541 10.6955C114.206 9.98037 115.003 9.41656 115.934 9.00353C116.864 8.59103 117.895 8.38319 119.026 8.38098C120.334 8.37816 121.365 8.60383 122.121 9.05618C122.876 9.50913 123.398 10.0058 123.688 10.5458L123.684 9.05953C123.684 8.84109 123.863 8.66311 124.084 8.66258L127.543 8.65595C127.764 8.65534 127.943 8.83279 127.943 9.05122L127.971 22.9007C127.973 24.0039 127.815 25.0589 127.496 26.0656C127.175 27.0724 126.673 27.9599 125.987 28.7295C125.3 29.4984 124.414 30.1165 123.329 30.5844C122.244 31.0511 120.935 31.2868 119.405 31.2895C118.273 31.2918 117.247 31.1371 116.327 30.8255C115.406 30.5134 114.6 30.0932 113.912 29.5649C113.223 29.036 112.667 28.4201 112.245 27.7183C111.89 27.1289 111.644 26.5197 111.508 25.8921C111.464 25.6892 111.598 25.4886 111.802 25.4353L115.033 24.5877Z" fill="#002067"/>
<path fill-rule="evenodd" clip-rule="evenodd" d="M168.384 24.6752C164.398 24.683 161.148 21.5263 161.141 17.6385L161.123 8.91199C161.122 8.69302 161.301 8.51565 161.522 8.51504L165.005 8.50788C165.225 8.50788 165.405 8.68472 165.405 8.90315L165.422 17.6296C165.426 19.2146 166.75 20.5013 168.375 20.498C170.001 20.4946 171.32 19.203 171.317 17.618L171.299 8.8915C171.298 8.67306 171.477 8.49508 171.698 8.49455L175.181 8.48792C175.401 8.48738 175.581 8.66475 175.581 8.88319L175.598 17.6097C175.606 21.4975 172.37 24.6675 168.384 24.6752Z" fill="#002067"/>
<mask id="mask0_2121_82414" style="mask-type:alpha" maskUnits="userSpaceOnUse" x="0" y="0" width="31" height="30">
<path fill-rule="evenodd" clip-rule="evenodd" d="M0 0.0491028H30.163V29.2384H0V0.0491028Z" fill="white"/>
</mask>
<g mask="url(#mask0_2121_82414)">
<path d="M30.1631 28.497C30.1631 28.707 29.9913 28.8778 29.7794 28.8784L28.8165 28.8801C13.0852 28.9116 0.237256 16.0301 4.71733e-05 0.0861307C-0.00330956 -0.126751 0.172919 -0.302489 0.387191 -0.302489L3.82673 -0.309142C4.03596 -0.309696 4.20379 -0.143382 4.2066 0.0639556C4.43093 13.7156 15.3912 24.7383 28.8081 24.7111L29.7709 24.7094C29.9835 24.7089 30.1553 24.8791 30.1558 25.0897L30.1631 28.497Z" fill="#002067"/>
<path fill-rule="evenodd" clip-rule="evenodd" d="M12.3358 26.6895C12.4925 26.7842 12.4797 27.016 12.3101 27.0876C8.94945 28.5007 5.26321 29.2862 1.40297 29.294L0.436785 29.2956C0.225311 29.2962 0.0529984 29.126 0.0524389 28.9159L0.045166 25.5081C0.045166 25.298 0.216919 25.1272 0.428953 25.1267L1.39401 25.125C3.86121 25.12 6.2417 24.7408 8.48515 24.044C8.60934 24.0057 8.74076 24.0335 8.83699 24.1199C9.37071 24.5978 10.8908 25.8168 12.3358 26.6895Z" fill="#002067"/>
<path fill-rule="evenodd" clip-rule="evenodd" d="M30.1023 0.387512C30.0134 8.56571 26.604 15.9512 21.1818 21.2072C21.0587 21.3264 20.8808 21.3752 20.7158 21.3275C19.65 21.0171 18.2721 20.3152 17.2689 19.5912C17.1134 19.4792 17.1106 19.2547 17.255 19.1294C22.4685 14.599 25.8018 7.88107 25.8946 0.382523C25.8974 0.174631 26.0647 0.00720824 26.274 0.00665386L29.7135 1.31216e-06C29.9277 -0.000553067 30.1045 0.174631 30.1023 0.387512Z" fill="#002067"/>
<path d="M23.5627 0.400701C23.4609 7.3759 20.2597 13.5999 15.2985 17.7189C15.1283 17.8603 14.8783 17.8692 14.7004 17.7373C13.6805 16.9755 12.7921 16.0386 12.1594 15.2448C12.0575 15.1167 12.0844 14.9348 12.2136 14.8334C16.4727 11.4883 19.2532 6.2677 19.3551 0.394048C19.3584 0.18671 19.5251 0.0198425 19.7344 0.0192882L23.1734 0.0126356C23.3882 0.0120812 23.5655 0.187819 23.5627 0.400701Z" fill="#002067"/>
<path d="M3.80625 18.6993C4.42109 19.6517 5.45384 20.8841 6.41443 21.8581C6.53975 21.9851 6.49499 22.198 6.32044 22.2407C4.65998 22.6465 2.9251 22.8599 1.141 22.8632L0.424336 22.8649C0.211742 22.8654 0.0399892 22.6952 0.0394297 22.4852L0.0327162 19.0779C0.0321568 18.8678 0.20391 18.6971 0.415384 18.6965L1.13317 18.6948C1.91696 18.6938 2.69237 18.6411 3.45323 18.538C3.59477 18.5192 3.72904 18.5801 3.80625 18.6993Z" fill="#002067"/>
</g>
</g>
<defs>
<clipPath id="clip0_2121_82414">
<rect width="195.81" height="32" fill="white"/>
</clipPath>
</defs>
</svg>
